<?xml version="1.0" encoding="utf-8"?>
<!-- Generator: Adobe Illustrator 21.1.0, SVG Export Plug-In . SVG Version: 6.00 Build 0)  -->
<svg version="1.1" id="Capa_1" xmlns="http://www.w3.org/2000/svg" xmlns:xlink="http://www.w3.org/1999/xlink" x="0px" y="0px"
	 viewBox="0 0 108 108" style="enable-background:new 0 0 108 108;" xml:space="preserve">
<style type="text/css">
	.st0{fill:#F9396A;}
	.st1{clip-path:url(#SVGID_2_);}
	.st2{fill:#FFFFFF;}
</style>
<rect class="st0" width="108" height="108"/>
<g>
	<defs>
		<path id="SVGID_1_" d="M56.3,27.9c-1.5-0.9-4-0.9-5.5,0l-19,11c-1.5,0.9-2.8,3-2.8,4.8v22c0,1.8,1.2,3.9,2.8,4.8l19,11
			c1.5,0.9,4,0.9,5.5,0l19-11c1.5-0.9,2.8-3,2.8-4.8v-22c0-1.8-1.2-3.9-2.8-4.8L56.3,27.9z"/>
	</defs>
	<clipPath id="SVGID_2_">
		<use xlink:href="#SVGID_1_"  style="overflow:visible;"/>
	</clipPath>
	<g class="st1">
		<path class="st2" d="M44.8,67.5c0,1.3,1,2.3,2.3,2.3s2.3-1,2.3-2.3c0-1.2-1-2.2-2.3-2.2S44.8,66.2,44.8,67.5z"/>
		<path class="st2" d="M60,47c1.2,0,2.3-1,2.3-2.3c0-1.2-1-2.2-2.3-2.2c-1.2,0-2.3,1-2.3,2.2C57.7,46.1,58.8,47,60,47z"/>
		<path class="st2" d="M60,58.4c1.2,0,2.3-1,2.3-2.3c0-1.2-1-2.2-2.3-2.2c-1.2,0-2.3,1-2.3,2.2C57.7,57.4,58.8,58.4,60,58.4z"/>
		<path class="st2" d="M122,9.4L85.9-12.5l-37,20.3l-0.4,18.9l-2.4-2l-7.3,2.7V19L13.5,4.4L-11.8,19v29.2l25.3,14.6l5.9-3.4l9.4,7.7
			L7.9,94.3l18.6,44.9l48.1,6.3l29.6-38.5L88.6,69.5l32.5-17.9L122,9.4z M51.1,54.6h5.3c0.6-1.4,1.9-2.4,3.6-2.4
			c2.1,0,3.9,1.8,3.9,3.9c0,2.2-1.8,3.9-3.9,3.9c-1.6,0-3-0.9-3.6-2.3h-5.3c-2.3,0-2.5,1.9-2.5,2.5v3.7c1.4,0.6,2.3,2,2.3,3.6
			c0,2.2-1.8,3.9-3.9,3.9c-2.1,0-3.9-1.7-3.9-3.9c0-1.6,1-2.9,2.3-3.6V48.8c0-2.3,1.5-5.6,5.6-5.6h5.3c0.6-1.4,1.9-2.4,3.6-2.4
			c2.1,0,3.9,1.8,3.9,3.9c0,2.2-1.8,3.9-3.9,3.9c-1.6,0-3-0.9-3.6-2.3h-5.3c-2.3,0-2.5,1.9-2.5,2.5v6.3
			C49.3,54.8,50.1,54.6,51.1,54.6z"/>
	</g>
</g>
</svg>
